<svg width="500" height="500" viewBox="0 0 500 500" xmlns="http://www.w3.org/2000/svg">
  <!-- Fond -->
  <circle cx="250" cy="250" r="240" fill="#f5f7fa" />
  
  <!-- Corps stylisé -->
  <ellipse cx="250" cy="250" rx="100" ry="150" fill="#4a90e2" />
  
  <!-- Tête -->
  <circle cx="250" cy="150" r="60" fill="#4a90e2" />
  
  <!-- Bras -->
  <path d="M150 250 Q 120 300 100 350" stroke="#4a90e2" stroke-width="30" fill="none" />
  <path d="M350 250 Q 380 300 400 350" stroke="#4a90e2" stroke-width="30" fill="none" />
  
  <!-- Jambes -->
  <path d="M210 400 L 190 480" stroke="#4a90e2" stroke-width="30" fill="none" />
  <path d="M290 400 L 310 480" stroke="#4a90e2" stroke-width="30" fill="none" />
  
  <!-- Haltère gauche -->
  <line x1="70" y1="360" x2="130" y2="360" stroke="#343a40" stroke-width="10" />
  <circle cx="60" cy="360" r="20" fill="#343a40" />
  <circle cx="140" cy="360" r="20" fill="#343a40" />
  
  <!-- Haltère droite -->
  <line x1="370" y1="360" x2="430" y2="360" stroke="#343a40" stroke-width="10" />
  <circle cx="360" cy="360" r="20" fill="#343a40" />
  <circle cx="440" cy="360" r="20" fill="#343a40" />
  
  <!-- Visage simplifié -->
  <circle cx="230" cy="140" r="8" fill="white" />
  <circle cx="270" cy="140" r="8" fill="white" />
  <path d="M230 180 Q 250 200 270 180" stroke="white" stroke-width="5" fill="none" />
</svg>
